<?xml version="1.0" encoding="utf-8"?><!-- Uploaded to: SVG Repo, www.svgrepo.com, Generator: SVG Repo Mixer Tools -->
<svg fill="#000000" width="800px" height="800px" viewBox="0 0 24 24" id="update-alt" data-name="Flat Color" xmlns="http://www.w3.org/2000/svg" class="icon flat-color"><path id="primary" d="M5,2A1,1,0,0,1,6,3V5.33A9,9,0,0,1,21,12a1,1,0,0,1-2,0A7,7,0,0,0,7.14,7H10a1,1,0,0,1,0,2H5A1,1,0,0,1,4,8V3A1,1,0,0,1,5,2Z" style="fill: rgb(0, 0, 0);"></path><path id="secondary" d="M4,11a1,1,0,0,1,1,1,7,7,0,0,0,11.89,5H14a1,1,0,0,1,0-2h5a1,1,0,0,1,1,1v5a1,1,0,0,1-2,0V18.67A9,9,0,0,1,3,12,1,1,0,0,1,4,11Z" style="fill: rgb(44, 169, 188);"></path></svg>